<svg width="28" height="24" viewBox="0 0 28 24" fill="none" xmlns="http://www.w3.org/2000/svg">
<path d="M1.692 17V4.4H6.876C7.992 4.4 8.946 4.58 9.738 4.94C10.542 5.3 11.16 5.816 11.592 6.488C12.024 7.16 12.24 7.958 12.24 8.882C12.24 9.806 12.024 10.604 11.592 11.276C11.16 11.936 10.542 12.446 9.738 12.806C8.946 13.154 7.992 13.328 6.876 13.328H2.988L4.032 12.266V17H1.692ZM9.936 17L6.75 12.428H9.252L12.456 17H9.936ZM4.032 12.518L2.988 11.402H6.768C7.8 11.402 8.574 11.18 9.09 10.736C9.618 10.292 9.882 9.674 9.882 8.882C9.882 8.078 9.618 7.46 9.09 7.028C8.574 6.596 7.8 6.38 6.768 6.38H2.988L4.032 5.228V12.518ZM20.276 17.18C18.548 17.18 17.192 16.694 16.208 15.722C15.236 14.75 14.75 13.346 14.75 11.51V4.4H17.09V11.42C17.09 12.716 17.366 13.658 17.918 14.246C18.482 14.834 19.274 15.128 20.294 15.128C21.314 15.128 22.1 14.834 22.652 14.246C23.204 13.658 23.48 12.716 23.48 11.42V4.4H25.784V11.51C25.784 13.346 25.292 14.75 24.308 15.722C23.336 16.694 21.992 17.18 20.276 17.18Z" fill="#EE685F"/>
<line y1="23" x2="28" y2="23" stroke="#EE685F" stroke-width="2" stroke-dasharray="3 3"/>
</svg>
