<svg width="12" height="24" viewBox="0 0 12 24" fill="none" xmlns="http://www.w3.org/2000/svg">
<path d="M5.04 19.16V2.24H6.516V19.16H5.04ZM5.598 17.18C4.614 17.18 3.672 17.042 2.772 16.766C1.872 16.478 1.158 16.112 0.63 15.668L1.44 13.85C1.944 14.246 2.568 14.576 3.312 14.84C4.056 15.104 4.818 15.236 5.598 15.236C6.258 15.236 6.792 15.164 7.2 15.02C7.608 14.876 7.908 14.684 8.1 14.444C8.292 14.192 8.388 13.91 8.388 13.598C8.388 13.214 8.25 12.908 7.974 12.68C7.698 12.44 7.338 12.254 6.894 12.122C6.462 11.978 5.976 11.846 5.436 11.726C4.908 11.606 4.374 11.468 3.834 11.312C3.306 11.144 2.82 10.934 2.376 10.682C1.944 10.418 1.59 10.07 1.314 9.638C1.038 9.206 0.9 8.654 0.9 7.982C0.9 7.298 1.08 6.674 1.44 6.11C1.812 5.534 2.37 5.078 3.114 4.742C3.87 4.394 4.824 4.22 5.976 4.22C6.732 4.22 7.482 4.316 8.226 4.508C8.97 4.7 9.618 4.976 10.17 5.336L9.432 7.154C8.868 6.818 8.286 6.572 7.686 6.416C7.086 6.248 6.51 6.164 5.958 6.164C5.31 6.164 4.782 6.242 4.374 6.398C3.978 6.554 3.684 6.758 3.492 7.01C3.312 7.262 3.222 7.55 3.222 7.874C3.222 8.258 3.354 8.57 3.618 8.81C3.894 9.038 4.248 9.218 4.68 9.35C5.124 9.482 5.616 9.614 6.156 9.746C6.696 9.866 7.23 10.004 7.758 10.16C8.298 10.316 8.784 10.52 9.216 10.772C9.66 11.024 10.014 11.366 10.278 11.798C10.554 12.23 10.692 12.776 10.692 13.436C10.692 14.108 10.506 14.732 10.134 15.308C9.774 15.872 9.216 16.328 8.46 16.676C7.704 17.012 6.75 17.18 5.598 17.18Z" fill="#EE685F"/>
<line y1="23" x2="12" y2="23" stroke="#EE685F" stroke-width="2" stroke-dasharray="3 3"/>
</svg>
