<svg width="24" height="24" viewBox="0 0 24 24" fill="none" xmlns="http://www.w3.org/2000/svg">
<path fill-rule="evenodd" clip-rule="evenodd" d="M12 0C5.37258 0 0 5.37258 0 12C0 18.6274 5.37258 24 12 24C18.6274 24 24 18.6274 24 12C24 5.37258 18.6274 0 12 0ZM8.39388 6C8.42939 6.02816 8.45755 6.02816 8.48572 6.02449C8.63143 6.01225 8.75633 6.04776 8.83715 6.18123C8.85141 6.20435 8.86567 6.22747 8.87994 6.2506C9.04703 6.5214 9.21441 6.79269 9.37349 7.07022C9.48864 7.27086 9.59849 7.47475 9.70846 7.67885C9.78909 7.82852 9.86979 7.97829 9.95268 8.12698C9.98477 8.18724 10.0249 8.244 10.065 8.30078C10.0876 8.33283 10.1102 8.36489 10.1315 8.39759C10.1826 8.47894 10.2315 8.56249 10.2793 8.64406L10.287 8.65719C10.3898 8.85188 10.3849 9.04781 10.2319 9.20332C10.0707 9.36806 9.89758 9.52411 9.72473 9.67987C9.66375 9.73481 9.60282 9.78972 9.54247 9.84496C9.46743 9.91382 9.3913 9.98158 9.3152 10.0493C9.19507 10.1562 9.07504 10.263 8.9596 10.374C8.81266 10.516 8.7747 10.6935 8.87389 10.8809C8.88307 10.8981 8.89225 10.9153 8.90142 10.9325C9.04523 11.2018 9.18885 11.4708 9.34655 11.7344C9.9686 12.7715 10.7633 13.6532 11.7674 14.3328C12.1543 14.5961 12.5572 14.8373 12.9638 15.0675C13.347 15.2842 13.4964 15.2475 13.794 14.9157C13.9511 14.7411 14.1051 14.565 14.2593 14.3886C14.3767 14.2544 14.4941 14.1201 14.6132 13.9863C14.6793 13.9116 14.7589 13.8454 14.836 13.7818C14.9928 13.6495 15.1642 13.6348 15.3442 13.7254C15.3555 13.7309 15.367 13.7363 15.3785 13.7417C15.4181 13.7603 15.4582 13.7791 15.4924 13.8038C15.8117 14.0322 16.1562 14.2158 16.5002 14.3991C16.6707 14.4899 16.8411 14.5807 17.0083 14.6769C17.1807 14.7759 17.35 14.8794 17.519 14.9827C17.6153 15.0415 17.7114 15.1003 17.8079 15.1581C17.9512 15.2426 18.0087 15.3663 17.9989 15.5365C17.972 16.0153 17.8924 16.4855 17.6144 16.8896C17.4981 17.0573 17.3328 17.2043 17.1663 17.323C16.7046 17.6463 16.1891 17.8459 15.6405 17.9684C15.1422 18.0798 14.645 18.0394 14.1674 17.89C13.2454 17.6059 12.3368 17.2802 11.5005 16.7867C10.7413 16.3373 10.0506 15.7949 9.41145 15.1887C8.60204 14.4185 7.87958 13.5785 7.29549 12.6222C6.91467 12.0013 6.64283 11.3327 6.3967 10.6507C6.24731 10.2393 6.10037 9.83149 6.03425 9.39557C5.95833 8.90209 6.01098 8.42698 6.16894 7.95922C6.31099 7.53676 6.48854 7.13267 6.75671 6.77144C6.96732 6.49103 7.23059 6.28531 7.57101 6.19347C7.76335 6.14258 7.95691 6.09898 8.1504 6.0554C8.2316 6.03711 8.31279 6.01882 8.39388 6Z" fill="#2A90D9"/>
</svg>
