<svg width="67" height="32" viewBox="0 0 67 32" fill="none" xmlns="http://www.w3.org/2000/svg">
<rect opacity="0.8" width="67" height="32" rx="8" fill="white"/>
<path d="M18.5516 8.90849C18.735 8.53687 19.265 8.53687 19.4484 8.90849L21.2348 12.5282C21.3076 12.6758 21.4484 12.7781 21.6113 12.8017L25.6059 13.3822C26.016 13.4418 26.1797 13.9458 25.883 14.235L22.9925 17.0526C22.8746 17.1675 22.8208 17.333 22.8487 17.4952L23.531 21.4736C23.6011 21.8821 23.1724 22.1935 22.8055 22.0007L19.2327 20.1223C19.087 20.0457 18.913 20.0457 18.7673 20.1223L15.1945 22.0007C14.8276 22.1935 14.3989 21.8821 14.469 21.4736L15.1513 17.4951C15.1792 17.333 15.1254 17.1675 15.0075 17.0526L12.117 14.235C11.8203 13.9458 11.984 13.4418 12.3941 13.3822L16.3887 12.8017C16.5516 12.7781 16.6924 12.6758 16.7652 12.5282L18.5516 8.90849Z" fill="#EFC968"/>
<path d="M31.64 19.056V18.224L37.576 10.8H38.856L32.968 18.224L32.344 18.032H41.352V19.056H31.64ZM37.96 22V19.056L37.992 18.032V15.44H39.112V22H37.96ZM43.5866 22.08C43.352 22.08 43.1493 21.9947 42.9786 21.824C42.8186 21.6533 42.7386 21.4453 42.7386 21.2C42.7386 20.944 42.8186 20.736 42.9786 20.576C43.1493 20.416 43.352 20.336 43.5866 20.336C43.8213 20.336 44.0186 20.416 44.1786 20.576C44.3493 20.736 44.4346 20.944 44.4346 21.2C44.4346 21.4453 44.3493 21.6533 44.1786 21.824C44.0186 21.9947 43.8213 22.08 43.5866 22.08ZM50.5255 22.096C49.6295 22.096 48.8562 21.968 48.2055 21.712C47.5655 21.456 47.0695 21.088 46.7175 20.608C46.3762 20.1173 46.2055 19.5413 46.2055 18.88C46.2055 18.24 46.3708 17.696 46.7015 17.248C47.0428 16.7893 47.5335 16.4373 48.1735 16.192C48.8242 15.9467 49.6082 15.824 50.5255 15.824C51.4322 15.824 52.2108 15.9467 52.8615 16.192C53.5122 16.4373 54.0082 16.7893 54.3495 17.248C54.7015 17.696 54.8775 18.24 54.8775 18.88C54.8775 19.5413 54.7015 20.1173 54.3495 20.608C53.9975 21.088 53.4962 21.456 52.8455 21.712C52.1948 21.968 51.4215 22.096 50.5255 22.096ZM50.5255 21.12C51.5175 21.12 52.2908 20.9173 52.8455 20.512C53.4108 20.1067 53.6935 19.5573 53.6935 18.864C53.6935 18.1707 53.4108 17.6267 52.8455 17.232C52.2908 16.8267 51.5175 16.624 50.5255 16.624C49.5335 16.624 48.7602 16.8267 48.2055 17.232C47.6508 17.6267 47.3735 18.1707 47.3735 18.864C47.3735 19.5573 47.6508 20.1067 48.2055 20.512C48.7602 20.9173 49.5335 21.12 50.5255 21.12ZM50.5255 16.48C49.6935 16.48 48.9842 16.368 48.3975 16.144C47.8215 15.92 47.3788 15.6 47.0695 15.184C46.7602 14.7573 46.6055 14.2507 46.6055 13.664C46.6055 13.0453 46.7655 12.5173 47.0855 12.08C47.4162 11.632 47.8748 11.2907 48.4615 11.056C49.0482 10.8213 49.7362 10.704 50.5255 10.704C51.3148 10.704 52.0028 10.8213 52.5895 11.056C53.1868 11.2907 53.6508 11.632 53.9815 12.08C54.3122 12.5173 54.4775 13.0453 54.4775 13.664C54.4775 14.2507 54.3228 14.7573 54.0135 15.184C53.7042 15.6 53.2508 15.92 52.6535 16.144C52.0668 16.368 51.3575 16.48 50.5255 16.48ZM50.5255 15.712C51.4002 15.712 52.0828 15.5307 52.5735 15.168C53.0642 14.8053 53.3095 14.32 53.3095 13.712C53.3095 13.072 53.0535 12.576 52.5415 12.224C52.0402 11.8613 51.3682 11.68 50.5255 11.68C49.6828 11.68 49.0108 11.8613 48.5095 12.224C48.0082 12.576 47.7575 13.0667 47.7575 13.696C47.7575 14.3147 47.9975 14.8053 48.4775 15.168C48.9682 15.5307 49.6508 15.712 50.5255 15.712Z" fill="#262729"/>
</svg>
